<svg id="Layer_1" data-name="Layer 1" xmlns="http://www.w3.org/2000/svg" viewBox="0 0 33 28.78"><defs><style>.cls-1{fill:#fff;}</style></defs><title>load_white</title><path class="cls-1" d="M16.5,17.08a0.5,0.5,0,0,1-.5-0.5V6.44a0.5,0.5,0,0,1,1,0V16.58A0.5,0.5,0,0,1,16.5,17.08Z"/><path class="cls-1" d="M21.58,12H11.43a0.5,0.5,0,1,1,0-1H21.57A0.5,0.5,0,1,1,21.58,12Z"/><path class="cls-1" d="M30.5,24H2.5A2.5,2.5,0,0,1,0,21.5V2.5A2.5,2.5,0,0,1,2.5,0h28A2.5,2.5,0,0,1,33,2.5v19A2.5,2.5,0,0,1,30.5,24ZM2.5,1A1.5,1.5,0,0,0,1,2.5v19A1.5,1.5,0,0,0,2.5,23h28A1.5,1.5,0,0,0,32,21.5V2.5A1.5,1.5,0,0,0,30.5,1H2.5Z"/><path class="cls-1" d="M28.5,20H4.5A1.5,1.5,0,0,1,3,18.5V4.5A1.5,1.5,0,0,1,4.5,3h24A1.5,1.5,0,0,1,30,4.5v14A1.5,1.5,0,0,1,28.5,20ZM4.5,4a0.5,0.5,0,0,0-.5.5v14a0.5,0.5,0,0,0,.5.5h24a0.5,0.5,0,0,0,.5-0.5V4.5A0.5,0.5,0,0,0,28.5,4H4.5Z"/><path class="cls-1" d="M22.88,28.78H10.13a0.5,0.5,0,0,1,0-1H22.88A0.5,0.5,0,0,1,22.88,28.78Z"/><path class="cls-1" d="M12.17,28.78a0.5,0.5,0,0,1-.45-0.71L14,23.29a0.5,0.5,0,0,1,.9.43L12.62,28.5A0.5,0.5,0,0,1,12.17,28.78Z"/><path class="cls-1" d="M20.84,28.78a0.5,0.5,0,0,1-.45-0.29l-2.25-4.78a0.5,0.5,0,0,1,.9-0.43l2.25,4.78A0.5,0.5,0,0,1,20.84,28.78Z"/></svg>