<svg id="Layer_1" data-name="Layer 1" xmlns="http://www.w3.org/2000/svg" viewBox="0 0 33 28.78"><defs><style>.cls-1{fill:#ccc;}</style></defs><title>load_gray</title><path class="cls-1" d="M6061.77,5541.82a0.5,0.5,0,0,1-.5-0.5v-10.14a0.5,0.5,0,0,1,1,0v10.14A0.5,0.5,0,0,1,6061.77,5541.82Z" transform="translate(-6045.27 -5524.74)"/><path class="cls-1" d="M6066.85,5536.74H6056.7a0.5,0.5,0,0,1,0-1h10.14A0.5,0.5,0,0,1,6066.85,5536.74Z" transform="translate(-6045.27 -5524.74)"/><path class="cls-1" d="M6075.77,5548.74h-28a2.5,2.5,0,0,1-2.5-2.5v-19a2.5,2.5,0,0,1,2.5-2.5h28a2.5,2.5,0,0,1,2.5,2.5v19A2.5,2.5,0,0,1,6075.77,5548.74Zm-28-23a1.5,1.5,0,0,0-1.5,1.5v19a1.5,1.5,0,0,0,1.5,1.5h28a1.5,1.5,0,0,0,1.5-1.5v-19a1.5,1.5,0,0,0-1.5-1.5h-28Z" transform="translate(-6045.27 -5524.74)"/><path class="cls-1" d="M6073.77,5544.74h-24a1.5,1.5,0,0,1-1.5-1.5v-14a1.5,1.5,0,0,1,1.5-1.5h24a1.5,1.5,0,0,1,1.5,1.5v14A1.5,1.5,0,0,1,6073.77,5544.74Zm-24-16a0.5,0.5,0,0,0-.5.5v14a0.5,0.5,0,0,0,.5.5h24a0.5,0.5,0,0,0,.5-0.5v-14a0.5,0.5,0,0,0-.5-0.5h-24Z" transform="translate(-6045.27 -5524.74)"/><path class="cls-1" d="M6068.15,5553.52H6055.4a0.5,0.5,0,0,1,0-1h12.75A0.5,0.5,0,0,1,6068.15,5553.52Z" transform="translate(-6045.27 -5524.74)"/><path class="cls-1" d="M6057.44,5553.52a0.5,0.5,0,0,1-.45-0.71l2.25-4.78a0.5,0.5,0,0,1,.9.43l-2.25,4.78A0.5,0.5,0,0,1,6057.44,5553.52Z" transform="translate(-6045.27 -5524.74)"/><path class="cls-1" d="M6066.11,5553.52a0.5,0.5,0,0,1-.45-0.29l-2.25-4.78a0.5,0.5,0,0,1,.9-0.43l2.25,4.78A0.5,0.5,0,0,1,6066.11,5553.52Z" transform="translate(-6045.27 -5524.74)"/></svg>